<?xml version="1.0" encoding="UTF-8" ?>
<!DOCTYPE svg PUBLIC "-//W3C//DTD SVG 1.1//EN" "http://www.w3.org/Graphics/SVG/1.1/DTD/svg11.dtd">
<svg width="2150pt" height="520pt" viewBox="0 0 2150 520" version="1.1" xmlns="http://www.w3.org/2000/svg">
<g id="#2d3338ff">
<path fill="#2d3338" opacity="1.00" d=" M 378.93 97.86 C 405.43 85.93 435.02 81.62 463.91 83.76 C 506.23 86.78 547.02 106.12 576.57 136.50 C 602.44 163.25 620.54 198.09 625.14 235.20 C 627.88 257.07 627.14 279.42 622.39 300.96 C 613.23 341.89 588.45 378.95 554.58 403.61 C 524.36 425.66 487.03 438.64 449.45 437.44 C 449.49 424.20 449.23 410.95 449.72 397.72 C 487.30 397.95 524.56 381.47 550.12 353.98 C 563.26 339.77 573.35 322.74 579.57 304.41 C 592.56 266.85 587.88 223.65 567.13 189.74 C 558.43 175.01 546.41 162.52 533.19 151.79 C 493.57 120.67 436.03 114.30 390.78 136.64 C 356.56 153.26 329.94 184.41 318.37 220.58 C 317.28 222.71 319.33 224.14 320.64 225.47 C 328.74 233.46 335.48 243.47 336.99 254.98 C 339.32 270.40 331.59 286.15 319.63 295.69 C 303.55 308.86 277.72 307.81 262.90 293.17 C 253.83 285.03 248.49 273.20 247.71 261.11 C 247.84 242.21 260.92 225.52 277.52 217.55 C 282.89 197.25 291.51 177.78 303.42 160.46 C 322.00 133.01 348.46 110.95 378.93 97.86 Z" />
<path fill="#2d3338" opacity="1.00" d=" M 1632.15 152.08 C 1638.35 150.71 1644.67 149.73 1651.05 150.01 C 1664.37 150.34 1678.02 148.72 1690.98 152.67 C 1697.75 155.20 1702.76 161.22 1705.19 167.91 C 1708.85 177.62 1708.74 188.14 1709.00 198.36 C 1697.15 198.37 1685.30 198.35 1673.46 198.37 C 1673.20 192.17 1672.34 186.01 1672.01 179.82 C 1664.33 179.81 1656.65 179.82 1648.97 179.82 C 1650.42 193.09 1644.86 207.66 1651.88 220.02 C 1663.40 221.29 1675.07 219.51 1686.52 221.63 C 1694.21 223.03 1701.79 227.43 1705.30 234.65 C 1711.16 245.76 1710.94 258.77 1710.61 270.99 C 1710.48 283.54 1711.90 296.51 1707.62 308.59 C 1705.41 315.48 1700.69 321.85 1693.92 324.74 C 1690.21 326.46 1686.08 326.62 1682.11 327.15 C 1665.65 329.19 1648.75 329.51 1632.53 325.67 C 1625.12 324.10 1619.11 318.38 1616.29 311.47 C 1611.51 300.00 1612.48 287.32 1611.97 275.18 C 1624.18 275.19 1636.39 275.17 1648.61 275.19 C 1648.66 283.14 1648.79 291.09 1649.44 299.02 C 1657.63 299.31 1665.80 298.48 1674.00 298.65 C 1674.10 284.24 1674.33 269.83 1674.01 255.42 C 1662.00 254.12 1649.81 256.08 1637.86 254.04 C 1629.63 252.68 1621.43 248.25 1617.40 240.71 C 1610.56 225.76 1612.26 208.92 1612.36 192.96 C 1612.17 183.78 1612.67 174.26 1616.62 165.81 C 1619.55 159.34 1625.12 153.78 1632.15 152.08 Z" />
<path fill="#2d3338" opacity="1.00" d=" M 690.96 152.38 C 702.46 152.40 713.96 152.38 725.47 152.39 C 732.15 176.29 739.13 200.12 745.82 224.03 C 752.38 200.09 759.43 176.30 766.13 152.40 C 778.00 152.40 789.87 152.33 801.74 152.44 C 790.74 187.49 777.53 221.82 766.93 257.01 C 765.16 262.15 765.52 267.68 765.02 273.02 C 764.55 290.34 765.20 307.66 764.99 324.99 C 752.12 324.97 739.24 325.00 726.37 324.98 C 726.11 306.02 727.24 287.07 726.25 268.13 C 726.10 264.44 725.94 260.71 724.80 257.18 C 714.62 223.63 702.33 190.78 691.45 157.47 C 690.95 155.81 691.02 154.07 690.96 152.38 Z" />
<path fill="#2d3338" opacity="1.00" d=" M 1254.39 152.40 C 1266.53 152.37 1278.67 152.39 1290.81 152.38 C 1290.83 167.25 1290.81 182.12 1290.82 196.99 C 1301.28 193.63 1312.37 191.36 1323.38 192.74 C 1331.06 193.71 1338.77 196.96 1343.85 202.97 C 1350.60 212.49 1351.00 224.70 1350.83 235.93 C 1350.52 243.28 1350.83 250.63 1350.61 257.98 C 1350.39 274.60 1352.55 291.55 1348.46 307.88 C 1347.45 312.89 1344.06 316.99 1340.37 320.32 C 1333.40 326.31 1323.99 328.62 1314.98 328.62 C 1303.80 328.23 1292.52 324.77 1283.77 317.67 C 1284.24 320.07 1284.66 322.50 1285.01 324.94 C 1274.80 325.04 1264.58 324.96 1254.37 324.98 C 1254.41 267.45 1254.37 209.92 1254.39 152.40 M 1292.44 218.67 C 1289.57 240.68 1291.02 262.91 1290.99 285.03 C 1291.28 290.69 1291.73 296.38 1291.03 302.04 C 1298.77 300.87 1307.58 304.54 1314.47 299.44 C 1315.97 277.66 1315.30 255.81 1315.14 234.00 C 1314.72 228.95 1315.53 223.82 1314.55 218.83 C 1307.19 218.25 1299.76 217.30 1292.44 218.67 Z" />
<path fill="#2d3338" opacity="1.00" d=" M 1057.37 167.02 C 1069.24 167.01 1081.12 167.03 1092.99 167.01 C 1092.99 176.22 1092.96 185.43 1093.00 194.64 C 1100.53 194.64 1108.06 194.63 1115.60 194.64 C 1115.63 203.36 1115.60 212.08 1115.62 220.81 C 1108.07 220.81 1100.52 220.79 1092.99 221.01 C 1093.34 246.02 1091.83 271.07 1093.84 296.03 C 1093.92 298.89 1095.37 301.92 1098.23 302.91 C 1103.79 304.96 1109.83 303.74 1115.60 304.46 C 1115.61 312.45 1115.65 320.43 1115.57 328.41 C 1113.68 328.22 1111.79 327.94 1109.92 328.14 C 1101.91 328.73 1093.89 328.21 1085.91 327.59 C 1078.69 326.62 1070.85 324.99 1065.81 319.25 C 1058.22 310.84 1057.06 298.85 1057.38 288.02 C 1057.38 247.68 1057.40 207.35 1057.37 167.02 Z" />
<path fill="#2d3338" opacity="1.00" d=" M 848.60 192.80 C 862.09 191.72 875.63 192.70 889.11 193.57 C 902.21 195.23 911.68 208.19 911.83 220.96 C 913.14 240.96 912.45 261.01 912.60 281.04 C 911.96 288.09 913.15 295.21 911.70 302.20 C 910.16 310.77 905.69 319.43 897.85 323.79 C 893.93 326.19 889.24 326.53 884.82 327.28 C 870.78 329.10 856.57 328.47 842.52 327.21 C 829.34 326.71 817.87 315.14 817.06 302.08 C 815.55 282.08 816.40 262.01 816.18 241.98 C 816.89 231.61 815.03 220.80 819.01 210.89 C 821.23 205.09 825.10 199.71 830.59 196.63 C 836.04 193.53 842.53 193.54 848.60 192.80 M 853.00 215.89 C 850.62 245.60 851.01 275.46 853.02 305.18 C 860.71 305.26 868.39 304.89 876.09 305.02 C 877.61 274.91 877.69 244.72 875.97 214.62 C 868.30 214.62 860.56 214.40 853.00 215.89 Z" />
<path fill="#2d3338" opacity="1.00" d=" M 1409.94 192.46 C 1423.79 193.42 1438.01 190.58 1451.56 194.62 C 1459.43 196.91 1466.27 203.11 1468.44 211.13 C 1474.43 230.38 1470.02 250.67 1471.43 270.35 C 1451.05 270.37 1430.67 270.37 1410.29 270.35 C 1410.84 280.76 1410.58 291.19 1411.03 301.60 C 1418.90 301.99 1426.86 302.52 1434.64 300.79 C 1435.46 294.69 1436.24 288.59 1436.55 282.45 C 1448.30 282.31 1460.07 282.42 1471.83 282.39 C 1471.65 292.23 1471.31 302.41 1467.61 311.68 C 1464.99 318.08 1459.63 323.59 1452.83 325.38 C 1434.25 329.96 1414.80 329.15 1396.05 326.12 C 1386.46 324.57 1379.55 316.06 1377.06 307.09 C 1374.39 299.30 1375.34 291.00 1375.18 282.93 C 1375.25 264.28 1374.56 245.61 1375.38 226.96 C 1376.05 220.07 1375.73 212.66 1379.58 206.59 C 1385.69 196.32 1398.38 191.54 1409.94 192.46 M 1411.15 217.47 C 1410.61 227.04 1410.73 236.62 1410.32 246.19 C 1418.95 246.03 1427.58 246.54 1436.21 246.38 C 1435.95 237.09 1436.31 227.71 1434.57 218.52 C 1426.99 216.02 1418.94 216.81 1411.15 217.47 Z" />
<path fill="#2d3338" opacity="1.00" d=" M 1888.80 198.38 C 1900.40 193.25 1913.56 190.76 1926.12 193.42 C 1932.79 194.74 1939.56 197.63 1943.54 203.42 C 1949.72 212.27 1950.18 223.54 1950.78 233.95 C 1950.88 264.29 1950.77 294.64 1950.83 324.98 C 1938.68 324.99 1926.54 324.97 1914.40 324.99 C 1913.37 289.66 1916.09 254.26 1913.13 218.99 C 1907.16 218.41 1901.04 216.23 1895.11 218.10 C 1893.06 218.94 1890.18 220.24 1890.39 222.87 C 1889.25 256.89 1890.25 290.95 1889.99 324.99 C 1877.78 324.97 1865.58 325.00 1853.37 324.98 C 1853.42 281.54 1853.34 238.10 1853.41 194.66 C 1865.16 195.45 1877.90 192.33 1888.80 198.38 Z" />
<path fill="#2d3338" opacity="1.00" d=" M 1995.88 194.09 C 2004.76 191.97 2013.95 192.84 2023.00 192.57 C 2034.54 192.99 2047.14 191.16 2057.52 197.41 C 2067.14 203.21 2070.55 215.18 2070.40 225.81 L 2071.55 222.14 C 2071.66 227.80 2071.51 233.47 2071.71 239.13 L 2070.35 238.25 C 2070.37 240.21 2070.36 242.16 2070.44 244.12 L 2071.67 241.44 C 2071.61 243.11 2071.63 244.78 2071.65 246.46 C 2059.49 246.67 2047.34 246.86 2035.18 246.82 C 2035.13 237.44 2035.62 227.95 2033.50 218.74 C 2026.20 217.47 2018.50 216.86 2011.43 219.52 C 2009.89 247.06 2010.36 274.66 2011.41 302.21 C 2019.14 302.27 2026.84 301.47 2034.57 301.28 C 2035.57 292.30 2034.74 283.20 2035.02 274.17 C 2047.24 274.32 2059.48 273.91 2071.70 274.40 C 2071.53 281.56 2071.60 288.72 2071.66 295.88 C 2071.33 295.70 2070.67 295.34 2070.34 295.16 C 2070.32 303.76 2068.21 312.88 2062.16 319.30 C 2056.29 324.95 2048.03 327.32 2040.08 327.83 C 2027.37 328.58 2014.58 328.78 2001.91 327.49 C 1993.17 326.40 1983.70 322.68 1979.52 314.37 C 1974.59 304.02 1973.86 292.29 1974.00 280.99 C 1974.36 263.31 1974.07 245.62 1974.22 227.94 C 1974.60 219.62 1976.25 211.05 1980.89 203.98 C 1984.22 198.76 1989.95 195.49 1995.88 194.09 Z" />
<path fill="#2d3338" opacity="1.00" d=" M 937.02 194.64 C 948.79 194.64 960.57 194.63 972.36 194.64 C 972.59 230.29 971.80 265.94 973.02 301.57 C 980.71 302.31 988.45 301.90 996.17 302.04 C 997.02 266.25 996.49 230.44 996.65 194.64 C 1008.76 194.63 1020.87 194.65 1032.98 194.63 C 1032.99 238.09 1032.98 281.54 1032.99 324.99 C 1021.06 324.77 1008.85 326.01 997.28 322.38 C 983.05 328.64 965.82 330.78 951.49 323.74 C 941.20 318.89 937.39 306.66 937.06 296.08 C 936.96 262.27 937.04 228.45 937.02 194.64 Z" />
<path fill="#2d3338" opacity="1.00" d=" M 1134.02 194.64 C 1146.13 194.65 1158.24 194.63 1170.36 194.65 C 1170.57 230.47 1169.88 266.31 1170.85 302.12 C 1178.48 301.70 1186.15 302.52 1193.75 301.57 C 1195.21 275.08 1194.45 248.53 1194.63 222.00 C 1194.03 212.88 1194.69 203.76 1194.64 194.64 C 1206.42 194.63 1218.20 194.64 1229.98 194.64 C 1229.99 238.08 1229.97 281.52 1229.99 324.97 C 1218.65 325.41 1207.10 325.64 1196.00 322.89 C 1193.16 322.15 1190.67 324.27 1188.01 324.89 C 1175.10 329.09 1160.05 329.89 1147.85 323.14 C 1141.95 319.98 1137.94 314.08 1136.21 307.71 C 1133.72 299.02 1134.00 289.88 1133.62 280.94 C 1133.68 265.28 1133.59 249.63 1133.67 233.97 C 1134.34 220.87 1133.88 207.75 1134.02 194.64 Z" />
<path fill="#2d3338" opacity="1.00" d=" M 1733.02 194.64 C 1745.13 194.64 1757.24 194.63 1769.35 194.64 C 1769.43 227.56 1769.18 260.48 1769.61 293.40 C 1777.62 293.42 1785.65 293.40 1793.66 292.95 C 1793.61 260.18 1793.65 227.41 1793.64 194.65 C 1805.83 194.62 1818.02 194.65 1830.22 194.63 C 1829.67 209.07 1830.15 223.53 1829.97 237.98 C 1830.70 251.31 1830.22 264.67 1830.36 278.01 C 1830.22 290.68 1830.71 303.36 1829.98 316.00 C 1829.68 327.64 1831.23 339.71 1827.17 350.90 C 1824.64 358.50 1819.06 365.67 1811.08 367.90 C 1804.89 369.48 1798.48 370.02 1792.14 370.54 L 1794.43 371.68 C 1787.07 371.72 1779.71 372.00 1772.36 371.54 L 1772.85 370.20 C 1767.53 370.26 1762.28 369.29 1757.08 368.33 C 1750.36 367.11 1744.85 362.15 1741.77 356.22 C 1737.74 348.47 1736.76 339.63 1736.08 331.05 C 1747.39 330.98 1758.71 331.01 1770.02 331.03 C 1771.77 335.30 1771.21 340.85 1775.05 344.00 C 1780.91 344.94 1787.01 344.27 1792.89 343.48 C 1793.83 333.81 1794.13 324.09 1794.01 314.38 C 1782.47 318.59 1769.85 321.30 1757.64 318.61 C 1750.22 316.92 1742.57 313.26 1738.72 306.36 C 1733.79 297.83 1733.38 287.65 1733.04 278.06 C 1732.98 250.25 1733.03 222.44 1733.02 194.64 Z" />
<path fill="#2d3338" opacity="1.00" d=" M 1493.64 233.02 C 1524.03 233.01 1554.43 233.02 1584.83 233.02 C 1584.81 242.67 1584.81 252.33 1584.83 261.98 C 1554.43 262.15 1524.02 261.60 1493.64 262.35 C 1493.62 252.57 1493.64 242.80 1493.64 233.02 Z" />
</g>
<g id="#ffffffff">
</g>
<g id="#ed2024ff">
<path fill="#ed2024" opacity="1.00" d=" M 136.17 175.33 C 165.91 119.40 228.07 82.34 291.47 83.26 C 291.54 96.35 291.69 109.44 291.65 122.54 C 264.04 123.78 236.26 131.61 213.45 147.52 C 194.86 160.83 179.02 178.28 168.92 198.88 C 149.27 237.51 149.11 285.81 169.75 324.08 C 188.66 359.27 222.91 386.39 262.16 394.79 C 275.21 397.83 288.71 397.84 302.03 397.47 C 358.00 393.87 408.60 351.74 423.80 298.02 C 413.38 289.25 405.09 276.98 403.79 263.13 C 403.44 244.41 415.10 225.46 432.97 219.03 C 442.82 216.98 453.28 216.21 463.11 218.83 C 485.97 225.86 499.38 254.03 489.97 276.11 C 485.61 288.52 474.62 296.90 463.54 303.09 C 449.85 358.20 408.38 405.92 355.08 425.95 C 334.51 434.44 312.08 437.46 289.95 437.37 C 273.83 436.95 257.58 435.54 242.08 430.85 C 194.03 417.02 152.43 381.88 131.29 336.50 C 107.50 286.06 108.86 224.13 136.17 175.33 Z" />
</g>
</svg>
